<svg width="80" height="80" viewBox="0 0 80 80" fill="none" xmlns="http://www.w3.org/2000/svg">
<g opacity="0.25">
<path d="M6.66675 49.9998C6.66675 55.5227 11.1439 59.9998 16.6667 59.9998L63.3334 59.9998C68.8563 59.9998 73.3334 55.5227 73.3334 49.9998V16.6665C73.3334 11.1437 68.8563 6.6665 63.3334 6.6665H16.6667C11.1439 6.6665 6.66675 11.1437 6.66675 16.6665V49.9998Z" fill="white"/>
<path d="M26.6667 66.6665C24.8258 66.6665 23.3334 68.1589 23.3334 69.9998C23.3334 71.8408 24.8258 73.3332 26.6667 73.3332H53.3334C55.1744 73.3332 56.6668 71.8408 56.6668 69.9998C56.6668 68.1589 55.1744 66.6665 53.3334 66.6665H26.6667Z" fill="white"/>
</g>
<path d="M23.3333 20C21.4924 20 20 21.4924 20 23.3333C20 25.1743 21.4924 26.6667 23.3333 26.6667H46.6667C48.5076 26.6667 50 25.1743 50 23.3333C50 21.4924 48.5076 20 46.6667 20H23.3333Z" fill="white"/>
<path d="M23.3333 33.3333C21.4924 33.3333 20 34.8257 20 36.6667C20 38.5076 21.4924 40 23.3333 40H30C31.841 40 33.3333 38.5076 33.3333 36.6667C33.3333 34.8257 31.841 33.3333 30 33.3333H23.3333Z" fill="white"/>
</svg>
