<svg width="80" height="80" viewBox="0 0 80 80" fill="none" xmlns="http://www.w3.org/2000/svg">
<path opacity="0.25" d="M6.66675 21.6665C6.66675 13.3822 13.3825 6.6665 21.6667 6.6665H58.3334C66.6177 6.6665 73.3334 13.3822 73.3334 21.6665C73.3334 29.9508 66.6177 36.6665 58.3334 36.6665H21.6667C13.3825 36.6665 6.66675 29.9508 6.66675 21.6665Z" fill="white"/>
<path d="M66.6667 21.6668C66.6667 26.2692 62.9357 30.0002 58.3333 30.0002C53.731 30.0002 50 26.2692 50 21.6668C50 17.0645 53.731 13.3335 58.3333 13.3335C62.9357 13.3335 66.6667 17.0645 66.6667 21.6668Z" fill="white"/>
<path opacity="0.25" d="M6.66675 58.3335C6.66675 50.0492 13.3825 43.3335 21.6667 43.3335H58.3334C66.6177 43.3335 73.3334 50.0492 73.3334 58.3335C73.3334 66.6178 66.6177 73.3335 58.3334 73.3335H21.6667C13.3825 73.3335 6.66675 66.6178 6.66675 58.3335Z" fill="white"/>
<path d="M29.9999 58.3333C29.9999 62.9357 26.269 66.6667 21.6666 66.6667C17.0642 66.6667 13.3333 62.9357 13.3333 58.3333C13.3333 53.731 17.0642 50 21.6666 50C26.269 50 29.9999 53.731 29.9999 58.3333Z" fill="white"/>
</svg>
